<svg width="72" height="72" viewBox="0 0 72 72" fill="none" xmlns="http://www.w3.org/2000/svg">
<rect width="72" height="72" rx="16" fill="#E23C30"/>
<path d="M12.6666 52.3333C12.6666 47.2 16.8666 43 22 43H31.3333C36.4666 43 40.6666 47.2 40.6666 52.3333" stroke="white" stroke-width="3.5" stroke-linecap="round" stroke-linejoin="round"/>
<path d="M32.5 22C35.7667 25.2667 35.7667 30.4 32.5 33.4333C29.2333 36.4667 24.1 36.7 21.0667 33.4333C18.0333 30.1667 17.8 25.2667 20.8333 22C23.8667 18.7333 29.2333 18.9667 32.5 22" stroke="white" stroke-width="3.5" stroke-linecap="round" stroke-linejoin="round"/>
<path d="M45.3333 40.6667H52.3333C56.2999 40.6667 59.3333 43.7 59.3333 47.6667" stroke="white" stroke-width="3.5" stroke-linecap="round" stroke-linejoin="round"/>
<path d="M53.0333 23.6333C55.3667 25.9667 55.3667 29.7 53.0333 31.8C50.7 33.9 46.9667 34.1333 44.8667 31.8C42.7667 29.4667 42.5333 25.7333 44.8667 23.6333C46.9667 21.5333 50.7 21.5333 53.0333 23.6333" stroke="white" stroke-width="3.5" stroke-linecap="round" stroke-linejoin="round"/>
</svg>
