<svg width="72" height="72" viewBox="0 0 72 72" fill="none" xmlns="http://www.w3.org/2000/svg">
<rect width="72" height="72" rx="16" fill="#E23C30"/>
<path d="M15 57V36C15 34.7113 16.0447 33.6667 17.3333 33.6667H24.3333" stroke="white" stroke-width="3.5" stroke-linecap="round" stroke-linejoin="round"/>
<path d="M33.6667 26.6667V18.5032C33.6667 17.3552 34.2296 16.2803 35.1731 15.6264C36.1166 14.9726 37.3208 14.8229 38.3956 15.226L55.486 21.6349C56.3967 21.9764 57 22.847 57 23.8197V57" stroke="white" stroke-width="3.5" stroke-linecap="round" stroke-linejoin="round"/>
<path d="M24.3333 57V29C24.3333 27.7113 25.378 26.6667 26.6667 26.6667H43C44.2887 26.6667 45.3333 27.7113 45.3333 29V57" stroke="white" stroke-width="3.5" stroke-linecap="round" stroke-linejoin="round"/>
<path d="M59.3333 57H12.6667" stroke="white" stroke-width="3.5" stroke-linecap="round" stroke-linejoin="round"/>
<path d="M31.3333 48.8333H38.3333" stroke="white" stroke-width="3.5" stroke-linecap="round" stroke-linejoin="round"/>
<path d="M31.3333 41.8333H38.3333" stroke="white" stroke-width="3.5" stroke-linecap="round" stroke-linejoin="round"/>
<path d="M31.3333 34.8333H38.3333" stroke="white" stroke-width="3.5" stroke-linecap="round" stroke-linejoin="round"/>
</svg>
