<svg width="187" height="123" viewBox="0 0 187 123" fill="none" xmlns="http://www.w3.org/2000/svg">
<path d="M60.4099 33.0875L69.7799 19.6975L58.4599 3.53752C57.0199 1.47752 54.7399 0.347527 52.4099 0.277527C52.3199 0.277527 52.23 0.277527 52.14 0.277527C52.05 0.277527 51.9599 0.277527 51.8699 0.277527C49.5299 0.347527 47.2599 1.47752 45.8199 3.53752L0.429932 68.3575H19.1799L52.1499 21.2775L60.4199 33.0975L60.4099 33.0875Z" fill="#E23C30"/>
<path d="M141.16 3.53752C139.72 1.47752 137.44 0.347527 135.11 0.277527C135.02 0.277527 134.93 0.277527 134.84 0.277527C134.75 0.277527 134.66 0.277527 134.57 0.277527C132.23 0.347527 129.96 1.47752 128.52 3.53752L93.5001 53.5475L85.2501 41.7675L75.8801 55.1575L85.1201 68.3575H101.88L134.85 21.2775L167.82 68.3575H186.57L141.18 3.53752H141.16Z" fill="#E23C30"/>
<path d="M117.2 55.1375L126.45 68.3575H145.2L126.57 41.7475L117.2 55.1375Z" fill="#E23C30"/>
<path d="M93.48 21.2675L101.76 33.0875L111.13 19.6975L99.55 3.1575C96.6 -1.0525 90.36 -1.0525 87.41 3.1575L87.35 3.2375C87.35 3.2375 87.33 3.25751 87.32 3.27751L41.76 68.3575H60.51L93.48 21.2775V21.2675Z" fill="#E23C30"/>
<path d="M14.4999 90.1175C15.8699 89.5175 16.9299 88.6575 17.6799 87.5175C18.4299 86.3775 18.7999 85.0075 18.7999 83.4175C18.7999 81.8275 18.4299 80.4775 17.6799 79.3275C16.9299 78.1775 15.8699 77.2975 14.4999 76.6775C13.1299 76.0575 11.4899 75.7575 9.59991 75.7575H0.429932V96.9475H5.36993V91.0175H9.60992C9.67992 91.0175 9.74995 91.0175 9.81995 91.0175L13.9399 96.9575H19.2099L14.4899 90.1375C14.4899 90.1375 14.51 90.1375 14.52 90.1275M12.7099 80.6975C13.4799 81.3375 13.8599 82.2375 13.8599 83.4075C13.8599 84.5775 13.4799 85.4875 12.7099 86.1275C11.9399 86.7775 10.8099 87.0975 9.31995 87.0975H5.34991V79.7375H9.31995C10.8099 79.7375 11.9399 80.0575 12.7099 80.6875" fill="white"/>
<path d="M30.6099 88.1075H40.45V84.2575H30.6099V79.6875H41.7499V75.7475H25.7299V96.9475H42.14V93.0075H30.6099V88.1075Z" fill="white"/>
<path d="M64.7899 77.0675C63.0299 76.1875 61.01 75.7475 58.7 75.7475H49.0699V96.9375H58.7C61 96.9375 63.0299 96.4975 64.7899 95.6175C66.5499 94.7375 67.9199 93.5075 68.9099 91.9275C69.8999 90.3475 70.39 88.4775 70.39 86.3375C70.39 84.1975 69.8899 82.3375 68.9099 80.7475C67.9199 79.1675 66.5499 77.9275 64.7899 77.0575M64.5599 89.8475C63.9799 90.8475 63.18 91.6175 62.14 92.1475C61.1 92.6775 59.8699 92.9475 58.4599 92.9475H54.0099V79.7475H58.4599C59.8699 79.7475 61.1 80.0175 62.14 80.5475C63.18 81.0875 63.9899 81.8475 64.5599 82.8375C65.1399 83.8275 65.4199 84.9975 65.4199 86.3475C65.4199 87.6975 65.1299 88.8475 64.5599 89.8475Z" fill="white"/>
<path d="M89.1099 88.9075L81.1699 75.7475H77.1099V96.9475H81.6799V84.4475L87.9199 94.6775H90.0999L96.3499 84.2975L96.3999 96.9475H100.97V75.7475H96.8799L89.1099 88.9075Z" fill="white"/>
<path d="M127.59 78.4775C126.54 77.4875 125.31 76.7275 123.91 76.1875C122.51 75.6575 120.97 75.3875 119.29 75.3875C117.61 75.3875 116.08 75.6575 114.67 76.2075C113.27 76.7575 112.04 77.5175 110.99 78.5075C109.94 79.4975 109.13 80.6575 108.55 81.9775C107.97 83.2975 107.69 84.7575 107.69 86.3575C107.69 87.9575 107.98 89.3875 108.55 90.7175C109.13 92.0475 109.94 93.2075 110.99 94.1975C112.04 95.1875 113.27 95.9575 114.68 96.4975C116.09 97.0475 117.64 97.3175 119.31 97.3175C120.98 97.3175 122.49 97.0475 123.9 96.5175C125.3 95.9875 126.53 95.2175 127.58 94.2275C128.63 93.2375 129.44 92.0775 130.02 90.7275C130.6 89.3875 130.88 87.9275 130.88 86.3575C130.88 84.7875 130.59 83.2975 130.02 81.9675C129.44 80.6375 128.63 79.4775 127.58 78.4875M125.42 89.0875C125.09 89.9075 124.62 90.6175 124.01 91.2375C123.4 91.8575 122.7 92.3275 121.91 92.6575C121.11 92.9875 120.24 93.1575 119.29 93.1575C118.34 93.1575 117.46 92.9875 116.66 92.6575C115.85 92.3275 115.15 91.8475 114.56 91.2375C113.96 90.6175 113.5 89.9075 113.17 89.0875C112.84 88.2675 112.67 87.3575 112.67 86.3475C112.67 85.3375 112.84 84.4275 113.17 83.6075C113.5 82.7875 113.97 82.0775 114.56 81.4575C115.16 80.8375 115.86 80.3675 116.66 80.0375C117.47 79.7075 118.35 79.5375 119.29 79.5375C120.23 79.5375 121.11 79.7075 121.91 80.0375C122.71 80.3675 123.41 80.8475 124.01 81.4575C124.62 82.0775 125.08 82.7875 125.42 83.6075C125.75 84.4275 125.92 85.3375 125.92 86.3475C125.92 87.3575 125.75 88.2675 125.42 89.0875Z" fill="white"/>
<path d="M152.2 88.6075L141.66 75.7475H137.61V96.9475H142.45V84.0875L152.99 96.9475H157.04V75.7475H152.2V88.6075Z" fill="white"/>
<path d="M184.93 80.7575C183.94 79.1775 182.57 77.9375 180.81 77.0675C179.05 76.1875 177.03 75.7475 174.72 75.7475H165.09V96.9375H174.72C177.02 96.9375 179.05 96.4975 180.81 95.6175C182.57 94.7375 183.94 93.5075 184.93 91.9275C185.92 90.3475 186.41 88.4775 186.41 86.3375C186.41 84.1975 185.91 82.3375 184.93 80.7475M180.59 89.8475C180.01 90.8475 179.21 91.6175 178.17 92.1475C177.13 92.6775 175.9 92.9475 174.49 92.9475H170.04V79.7475H174.49C175.9 79.7475 177.13 80.0175 178.17 80.5475C179.21 81.0875 180.02 81.8475 180.59 82.8375C181.17 83.8275 181.45 84.9975 181.45 86.3475C181.45 87.6975 181.16 88.8475 180.59 89.8475Z" fill="white"/>
<path d="M0 115.788V107.397H2.76001V115.677C2.76001 118.737 4.13998 120.057 6.53998 120.057C8.93998 120.057 10.3 118.737 10.3 115.677V107.397H13.02V115.788C13.02 120.118 10.58 122.478 6.52002 122.478C2.46002 122.478 0 120.118 0 115.788Z" fill="#8A9EA3"/>
<path d="M36.2601 107.397V122.268H33.9901L25.79 112.198V122.268H23.05V107.397H25.3201L33.5201 117.467V107.397H36.2601Z" fill="#8A9EA3"/>
<path d="M46.4199 107.397H49.1799V122.268H46.4199V107.397Z" fill="#8A9EA3"/>
<path d="M72.8499 107.397L66.3699 122.268H63.6499L57.1499 107.397H60.14L65.0899 118.867L70.08 107.397H72.8399H72.8499Z" fill="#8A9EA3"/>
<path d="M91.7401 119.948V122.268H80.5901V107.397H91.4401V109.717H83.3501V113.587H90.5301V115.858H83.3501V119.958H91.7401V119.948Z" fill="#8A9EA3"/>
<path d="M110.71 122.258L107.67 117.908C107.48 117.928 107.29 117.927 107.1 117.927H103.74V122.258H100.98V107.388H107.1C111.01 107.388 113.43 109.387 113.43 112.677C113.43 114.927 112.28 116.587 110.27 117.367L113.69 122.247H110.72L110.71 122.258ZM106.97 109.728H103.74V115.658H106.97C109.39 115.658 110.64 114.557 110.64 112.688C110.64 110.818 109.39 109.738 106.97 109.738V109.728Z" fill="#8A9EA3"/>
<path d="M121.42 120.688L122.38 118.548C123.57 119.508 125.46 120.177 127.29 120.177C129.6 120.177 130.58 119.347 130.58 118.247C130.58 115.037 121.74 117.147 121.74 111.617C121.74 109.217 123.65 107.177 127.73 107.177C129.51 107.177 131.38 107.647 132.68 108.497L131.81 110.647C130.47 109.857 129.01 109.478 127.71 109.478C125.42 109.478 124.48 110.367 124.48 111.497C124.48 114.667 133.29 112.597 133.29 118.057C133.29 120.437 131.36 122.478 127.28 122.478C124.96 122.478 122.65 121.757 121.42 120.688Z" fill="#8A9EA3"/>
<path d="M142.2 107.397H144.96V122.268H142.2V107.397Z" fill="#8A9EA3"/>
<path d="M158.16 109.728H153.23V107.388H165.85V109.728H160.92V122.258H158.16V109.728Z" fill="#8A9EA3"/>
<path d="M180.3 117.018V122.268H177.54V117.068L171.7 107.408H174.65L179 114.647L183.4 107.408H186.12L180.3 117.027V117.018Z" fill="#8A9EA3"/>
</svg>
